<mxfile host="app.diagrams.net" modified="2023-01-13T15:56:41.347Z" agent="5.0 (Macintosh)" etag="0tq9fO397Sgdt7QzTrs0" version="20.8.4" type="github">
  <diagram id="C5RBs43oDa-KdzZeNtuy" name="Page-1">
    <mxGraphModel dx="844" dy="578" grid="1" gridSize="10" guides="0" tooltips="1" connect="1" arrows="1" fold="1" page="1" pageScale="1" pageWidth="1169" pageHeight="827" math="0" shadow="0">
      <root>
        <mxCell id="WIyWlLk6GJQsqaUBKTNV-0" />
        <mxCell id="WIyWlLk6GJQsqaUBKTNV-1" parent="WIyWlLk6GJQsqaUBKTNV-0" />
        <mxCell id="SY0biOSwpH2cryvIoxOE-0" value="el archivo tiene contenido?" style="strokeWidth=2;html=1;shape=mxgraph.flowchart.decision;whiteSpace=wrap;fillColor=#FFE599;" vertex="1" parent="WIyWlLk6GJQsqaUBKTNV-1">
          <mxGeometry x="30" y="179" width="120" height="120" as="geometry" />
        </mxCell>
        <mxCell id="SY0biOSwpH2cryvIoxOE-1" value="INICIO" style="rounded=1;whiteSpace=wrap;html=1;absoluteArcSize=1;arcSize=14;strokeWidth=2;" vertex="1" parent="WIyWlLk6GJQsqaUBKTNV-1">
          <mxGeometry x="40" y="10" width="100" height="100" as="geometry" />
        </mxCell>
        <mxCell id="SY0biOSwpH2cryvIoxOE-2" value="FIN" style="rounded=1;whiteSpace=wrap;html=1;absoluteArcSize=1;arcSize=14;strokeWidth=2;" vertex="1" parent="WIyWlLk6GJQsqaUBKTNV-1">
          <mxGeometry x="70" y="670" width="100" height="100" as="geometry" />
        </mxCell>
        <mxCell id="SY0biOSwpH2cryvIoxOE-9" value="" style="line;strokeWidth=2;html=1;rotation=90;" vertex="1" parent="WIyWlLk6GJQsqaUBKTNV-1">
          <mxGeometry x="56.25" y="139.75" width="67.5" height="10" as="geometry" />
        </mxCell>
        <mxCell id="SY0biOSwpH2cryvIoxOE-10" value="aislar enlaces para analizarlos" style="rounded=1;whiteSpace=wrap;html=1;strokeWidth=2;fillWeight=4;hachureGap=8;hachureAngle=45;fillColor=#D4E1F5;sketch=1;" vertex="1" parent="WIyWlLk6GJQsqaUBKTNV-1">
          <mxGeometry x="520" y="210" width="120" height="60" as="geometry" />
        </mxCell>
        <mxCell id="SY0biOSwpH2cryvIoxOE-11" value="leer contenido" style="rounded=1;whiteSpace=wrap;html=1;strokeWidth=2;fillWeight=4;hachureGap=8;hachureAngle=45;fillColor=#D4E1F5;sketch=1;" vertex="1" parent="WIyWlLk6GJQsqaUBKTNV-1">
          <mxGeometry x="190" y="210" width="120" height="60" as="geometry" />
        </mxCell>
        <mxCell id="SY0biOSwpH2cryvIoxOE-12" value="&lt;div&gt;dentro del &lt;br&gt;&lt;/div&gt;&lt;div&gt;contenido, hay enlaces?&lt;/div&gt;" style="strokeWidth=2;html=1;shape=mxgraph.flowchart.decision;whiteSpace=wrap;fillColor=#FFE599;" vertex="1" parent="WIyWlLk6GJQsqaUBKTNV-1">
          <mxGeometry x="360" y="180" width="120" height="120" as="geometry" />
        </mxCell>
        <mxCell id="SY0biOSwpH2cryvIoxOE-13" value="&lt;div&gt;son links &lt;br&gt;&lt;/div&gt;&lt;div&gt;de tipo MD?&lt;/div&gt;" style="strokeWidth=2;html=1;shape=mxgraph.flowchart.decision;whiteSpace=wrap;fillColor=#FFE599;" vertex="1" parent="WIyWlLk6GJQsqaUBKTNV-1">
          <mxGeometry x="680" y="180" width="120" height="120" as="geometry" />
        </mxCell>
      </root>
    </mxGraphModel>
  </diagram>
</mxfile>
